<svg id="Group_907" data-name="Group 907" xmlns="http://www.w3.org/2000/svg" xmlns:xlink="http://www.w3.org/1999/xlink" width="283.843" height="283.843" viewBox="0 0 283.843 283.843">
  <defs>
    <clipPath id="clip-path">
      <rect id="Rectangle_206" data-name="Rectangle 206" width="283.843" height="283.843" fill="none"/>
    </clipPath>
  </defs>
  <g id="Group_905" data-name="Group 905" clip-path="url(#clip-path)">
    <path id="Path_5841" data-name="Path 5841" d="M121.1,225.69A104.593,104.593,0,1,1,225.692,121.1,104.712,104.712,0,0,1,121.1,225.69m0-206.925A102.331,102.331,0,1,0,223.43,121.1,102.45,102.45,0,0,0,121.1,18.765" transform="translate(20.825 20.825)" fill="#f3eadf"/>
    <path id="Path_5842" data-name="Path 5842" d="M141.923,283.843C63.666,283.843,0,220.18,0,141.923S63.666,0,141.923,0s141.92,63.666,141.92,141.923-63.663,141.92-141.92,141.92m0-281.581C64.914,2.262,2.262,64.914,2.262,141.923S64.914,281.581,141.923,281.581s139.658-62.65,139.658-139.658S218.931,2.262,141.923,2.262" fill="#f3eadf"/>
    <path id="Path_5843" data-name="Path 5843" d="M12.161,96.228l-.6-1.558L19.6,88.45c.351-.283.805-.624,1.355-1.02a9.618,9.618,0,0,1,1.009-.674,22.2,22.2,0,0,1-2.931.378l-10.047.808-.6-1.561,12.187-8.81.64,1.669L13.654,84.6a33.292,33.292,0,0,1-2.945,1.875,24.571,24.571,0,0,1,3.608-.532l9.183-.731.64,1.672-7.347,5.743a27.178,27.178,0,0,1-2.961,2,28.794,28.794,0,0,1,3.467-.563l9.181-1.072.64,1.674Z" transform="translate(10.582 97.885)" fill="#f3eadf"/>
    <rect id="Rectangle_204" data-name="Rectangle 204" width="14.532" height="1.689" transform="translate(31.085 210.084) rotate(-31.577)" fill="#f3eadf"/>
    <path id="Path_5844" data-name="Path 5844" d="M25.624,113.105l-1.271-1.448,3.913-14.019-.052-.059q-1.51,1.537-2.852,2.719l-6.2,5.456L18.13,104.58l10.911-9.595,1.26,1.432-3.888,13.972.05.059q.19-.19,1.237-1.206t1.531-1.411l6.261-5.51,1.045,1.19Z" transform="translate(22.878 119.861)" fill="#f3eadf"/>
    <path id="Path_5845" data-name="Path 5845" d="M33.06,119.127l-6.415-4.949,8.876-11.506,6.415,4.949-.916,1.188-5.078-3.915L33.083,108.6l4.77,3.68-.912,1.178-4.77-3.68-3.266,4.234,5.078,3.918Z" transform="translate(33.624 129.561)" fill="#f3eadf"/>
    <path id="Path_5846" data-name="Path 5846" d="M47.905,126.49l-.584-13.782-.075-.025q-.356,1.5-1.022,3.492l-2.938,8.767-1.479-.5,4.617-13.779,2.411.807.556,12.829.075.025,8.211-9.891,2.4.8-4.617,13.779-1.6-.536,2.972-8.88q.512-1.523,1.244-3.273L58,116.3l-8.8,10.617Z" transform="translate(52.756 139.651)" fill="#f3eadf"/>
    <path id="Path_5847" data-name="Path 5847" d="M62.849,129.16l-8.046-.939,1.685-14.435,8.046.941-.174,1.488-6.365-.742-.545,4.65,5.983.7-.172,1.484-5.983-.7-.62,5.311,6.367.744Z" transform="translate(69.156 143.586)" fill="#f3eadf"/>
    <path id="Path_5848" data-name="Path 5848" d="M66.859,122.859l.387,6.03L65.561,129l-.93-14.5,3.974-.256a6.265,6.265,0,0,1,4.01.769A3.713,3.713,0,0,1,74.088,118a3.863,3.863,0,0,1-2.667,4.076l4.354,6.263-1.99.129-3.9-5.8Zm-.093-1.45,2.309-.147a4.018,4.018,0,0,0,2.574-.878,2.649,2.649,0,0,0,.7-2.183,2.436,2.436,0,0,0-.982-2.02,4.639,4.639,0,0,0-2.764-.459l-2.192.143Z" transform="translate(81.557 144.124)" fill="#f3eadf"/>
    <path id="Path_5849" data-name="Path 5849" d="M80.094,114.065a4.74,4.74,0,0,0-3.262,2.49,6.425,6.425,0,0,0-.253,4.576,6.57,6.57,0,0,0,2.4,3.933,4.745,4.745,0,0,0,4.08.552,12.853,12.853,0,0,0,3.221-1.4l.369,1.434a10.684,10.684,0,0,1-3.465,1.482,6.3,6.3,0,0,1-5.286-.649,8.034,8.034,0,0,1-3.072-4.924,8.73,8.73,0,0,1-.17-4.022,6.03,6.03,0,0,1,1.7-3.128,7.328,7.328,0,0,1,3.386-1.816,9,9,0,0,1,4.078-.19l-.33,1.583a7.683,7.683,0,0,0-3.391.075" transform="translate(94.002 141.653)" fill="#f3eadf"/>
    <path id="Path_5850" data-name="Path 5850" d="M99.679,121.189l-1.52.737-2.99-6.15-6.883,3.348,2.988,6.15-1.52.74L83.4,112.943l1.52-.74,2.7,5.56,6.883-3.343-2.7-5.562,1.518-.737Z" transform="translate(105.245 136.436)" fill="#f3eadf"/>
    <path id="Path_5851" data-name="Path 5851" d="M107.133,112.836l-4.239-2.581-4.635,3.531,1.378,4.761-1.359,1.036-4.273-15.089,1.129-.862,13.39,8.143Zm-5.58-3.472-4.074-2.558q-.777-.478-1.81-1.258a18.2,18.2,0,0,1,.774,2.049l1.371,4.617Z" transform="translate(118.624 130.773)" fill="#f3eadf"/>
    <path id="Path_5852" data-name="Path 5852" d="M118.5,104.581l-1.273,1.448-14.4-2.09-.052.059q1.717,1.3,3.058,2.481l6.207,5.453-1.031,1.174-10.914-9.6,1.26-1.432,14.354,2.074.052-.063q-.214-.159-1.355-1.07t-1.6-1.337l-6.261-5.51,1.043-1.185Z" transform="translate(126.308 119.86)" fill="#f3eadf"/>
    <path id="Path_5853" data-name="Path 5853" d="M122.066,98.04l-.853,1.461L109.958,92.93l-2.318,3.976-1.3-.758,5.492-9.409,1.3.758-2.323,3.974Z" transform="translate(134.195 109.456)" fill="#f3eadf"/>
    <path id="Path_5854" data-name="Path 5854" d="M123.3,82.107a3.563,3.563,0,0,1,2.33,2.334,6.024,6.024,0,0,1-.294,3.918,9.419,9.419,0,0,1-1.99,3.5l-1.531-.561a10.693,10.693,0,0,0,2.153-3.506,4.2,4.2,0,0,0,.274-2.612,2.116,2.116,0,0,0-1.38-1.416,2.3,2.3,0,0,0-1.267-.14,2.809,2.809,0,0,0-1.183.645,14.094,14.094,0,0,0-1.613,1.712,6.857,6.857,0,0,1-2.615,2.128,3.78,3.78,0,0,1-2.732-.077,3.221,3.221,0,0,1-2.076-2.106,5.238,5.238,0,0,1,.215-3.477,9.861,9.861,0,0,1,2.119-3.47l1.2,1a8.989,8.989,0,0,0-1.916,3.022,3.417,3.417,0,0,0-.181,2.167,1.905,1.905,0,0,0,1.244,1.262,2.445,2.445,0,0,0,1.258.163,2.583,2.583,0,0,0,1.154-.577A11.508,11.508,0,0,0,118,84.43a8.087,8.087,0,0,1,2.726-2.352,3.459,3.459,0,0,1,2.574.029" transform="translate(140.282 99.666)" fill="#f3eadf"/>
    <path id="Path_5855" data-name="Path 5855" d="M24.755,44.865l-4.96.156-1.952,5.487L21.6,53.743l-.572,1.61L9.2,45.05l.475-1.339,15.664-.5Zm-6.571.143-4.809.081c-.611.016-1.344-.007-2.2-.066a18.969,18.969,0,0,1,1.769,1.294l3.669,3.119Z" transform="translate(11.612 54.534)" fill="#f3eadf"/>
    <path id="Path_5856" data-name="Path 5856" d="M30.93,38.72l-1.018,1.708-8.767.941.382,2,4.892,2.918-.866,1.45L13.07,40.292l.866-1.45,6.191,3.689L17.311,33.18l1.027-1.717,2.427,8.251Z" transform="translate(16.493 39.704)" fill="#f3eadf"/>
    <path id="Path_5857" data-name="Path 5857" d="M35.484,33.34,30.112,39.4,19.235,29.766,24.607,23.7l1.124,1-4.25,4.8,3.5,3.106,4-4.508,1.115.986L26.1,33.588l4,3.549,4.252-4.8Z" transform="translate(24.272 29.909)" fill="#f3eadf"/>
    <path id="Path_5858" data-name="Path 5858" d="M36.47,26a3.9,3.9,0,0,1-.529-2.33,7.537,7.537,0,0,1,1.165-2.97,12.3,12.3,0,0,1-1.705-.676,4.916,4.916,0,0,1-.918-.645,3.343,3.343,0,0,1-.7-.862,2.9,2.9,0,0,1-.3-2.5,4.035,4.035,0,0,1,1.947-2.067,3.658,3.658,0,0,1,2.612-.529,2.943,2.943,0,0,1,1.945,1.552,3.188,3.188,0,0,1,.38,2.042,7.65,7.65,0,0,1-1.04,2.689l5.435,1.382a4.729,4.729,0,0,0,.059-1.7,12.757,12.757,0,0,0-.4-1.852l1.45-.826a9.509,9.509,0,0,1,.36,4.757l4.013,1.047-1.979,1.124-2.472-.629a7.055,7.055,0,0,1-3.454,4.223,4.784,4.784,0,0,1-3.4.722A3.7,3.7,0,0,1,36.47,26m-1.287-8.324a2.561,2.561,0,0,0,.957.959,7.917,7.917,0,0,0,1.8.7,6.453,6.453,0,0,0,.873-2.079,2.27,2.27,0,0,0-.283-1.513,1.635,1.635,0,0,0-1.063-.832,1.9,1.9,0,0,0-1.425.256,2.114,2.114,0,0,0-1.013,1.124,1.6,1.6,0,0,0,.154,1.387m6.455,8.247a5.487,5.487,0,0,0,2.7-3.3l-5.858-1.52a9.728,9.728,0,0,0-.805,1.744,2.728,2.728,0,0,0,.26,2.271,2.354,2.354,0,0,0,1.583,1.224,3,3,0,0,0,2.119-.423" transform="translate(42.05 16.85)" fill="#f3eadf"/>
    <path id="Path_5859" data-name="Path 5859" d="M64.073,20.788l-1.665.285-1.149-6.74-7.546,1.285,1.151,6.74-1.669.285L50.755,8.318l1.667-.285,1.038,6.1,7.546-1.287-1.04-6.094,1.667-.285Z" transform="translate(64.047 8.156)" fill="#f3eadf"/>
    <path id="Path_5860" data-name="Path 5860" d="M74.136,6.5l-.409,9.394a5.128,5.128,0,0,1-1.669,3.838,5.758,5.758,0,0,1-4.185,1.24,5.492,5.492,0,0,1-3.992-1.608,5.308,5.308,0,0,1-1.264-3.992l.407-9.355,1.69.072L64.3,15.56a3.744,3.744,0,0,0,.871,2.834,4,4,0,0,0,2.879,1.1,3.854,3.854,0,0,0,2.87-.855,3.753,3.753,0,0,0,1.115-2.764l.414-9.45Z" transform="translate(79.005 7.588)" fill="#f3eadf"/>
    <path id="Path_5861" data-name="Path 5861" d="M79.41,23.016,78.125,9.284l-.079-.023q-.278,1.513-.844,3.542l-2.484,8.905-1.5-.421,3.9-14,2.45.685,1.212,12.782.079.023,7.69-10.3,2.432.679-3.9,14L85.452,24.7l2.517-9.018q.431-1.551,1.074-3.332l-.077-.023L80.722,23.382Z" transform="translate(92.392 9.2)" fill="#f3eadf"/>
    <path id="Path_5862" data-name="Path 5862" d="M97.768,19.944a4.067,4.067,0,0,1-2.929,2.285,6.811,6.811,0,0,1-4.361-.982l-1.506-.807-2.694,5.042-1.491-.8,6.851-12.816,3.323,1.778q4.8,2.565,2.807,6.3m-8.111-.785L91,19.876a5.637,5.637,0,0,0,3.207.893,2.681,2.681,0,0,0,1.984-1.577,2.516,2.516,0,0,0,.179-2.341,4.955,4.955,0,0,0-2.262-2.009l-1.669-.891Z" transform="translate(106.992 14.975)" fill="#f3eadf"/>
    <path id="Path_5863" data-name="Path 5863" d="M101.454,35.8l-1.3-1.081,4.37-5.259-5.885-4.89-4.372,5.259-1.3-1.079,9.287-11.178,1.3,1.081L99.6,23.411,105.49,28.3l3.952-4.757,1.3,1.081Z" transform="translate(117.315 22.178)" fill="#f3eadf"/>
    <path id="Path_5864" data-name="Path 5864" d="M106.615,32.516l-4.721,3.773-1.056-1.319L112.19,25.9l2.488,3.115a6.266,6.266,0,0,1,1.669,3.723,3.724,3.724,0,0,1-1.61,2.922,3.861,3.861,0,0,1-4.87.149l-2.637,7.161-1.246-1.561,2.524-6.523Zm1.133-.9,1.448,1.81a4,4,0,0,0,2.192,1.606,2.651,2.651,0,0,0,2.187-.679,2.442,2.442,0,0,0,1.092-1.961,4.6,4.6,0,0,0-1.208-2.529l-1.371-1.717Z" transform="translate(127.247 32.681)" fill="#f3eadf"/>
    <rect id="Rectangle_205" data-name="Rectangle 205" width="14.533" height="1.69" transform="matrix(0.873, -0.488, 0.488, 0.873, 240.799, 85.806)" fill="#f3eadf"/>
    <path id="Path_5865" data-name="Path 5865" d="M115.813,53.034a3.566,3.566,0,0,1-3.287-.28,6.027,6.027,0,0,1-2.307-3.178,9.5,9.5,0,0,1-.737-3.965l1.531-.559a10.469,10.469,0,0,0,.109,2.033,10.186,10.186,0,0,0,.511,2.038,4.188,4.188,0,0,0,1.475,2.167,2.1,2.1,0,0,0,1.97.192,2.281,2.281,0,0,0,1.059-.708,2.842,2.842,0,0,0,.486-1.26,14.069,14.069,0,0,0,.127-2.348,6.943,6.943,0,0,1,.62-3.311,3.817,3.817,0,0,1,2.14-1.705,3.231,3.231,0,0,1,2.947.269,5.24,5.24,0,0,1,2.076,2.8,9.848,9.848,0,0,1,.622,4.015l-1.563.011A9,9,0,0,0,123.1,45.7a3.391,3.391,0,0,0-1.262-1.773,1.9,1.9,0,0,0-1.76-.161,2.447,2.447,0,0,0-1.068.685,2.645,2.645,0,0,0-.511,1.187,11.953,11.953,0,0,0-.14,2.2,7.987,7.987,0,0,1-.563,3.556,3.441,3.441,0,0,1-1.984,1.64" transform="translate(138.128 52.893)" fill="#f3eadf"/>
    <path id="Path_5866" data-name="Path 5866" d="M87.228,69.054c-3.687,0-6.148,1.945-7.5,5.944a11.18,11.18,0,0,0-5.3-2.59c4.415-1.192,6.987-4.069,6.987-7.955,0-4.39-3.721-8.817-12.033-8.817-8.873,0-12.033,4.583-12.033,8.873,0,3.931,2.9,6.935,7.541,8-5.526,1.5-8.763,5.815-8.763,11.852,0,7.847,4.6,12.533,12.311,12.533,5.736,0,7.9-3.538,9.023-7.414l.133.565c.728,3.257,3.149,6.736,7.754,6.736,3.748,0,6.152-1.839,6.593-5.037a.9.9,0,0,0-.1-.7.834.834,0,0,0-.613-.31c-.71,0-.8.692-.828.939-.228,1.423-1.034,2.943-2.61,2.943-.335,0-1.359,0-1.893-2.361l-.425-1.81c-.722-3.067-1.468-6.236-2.07-9.057a12.056,12.056,0,0,0-2.551-5.166c.522-1.773,1.941-5.388,4.834-5.388.034,0,.83,0,.83.5a2.158,2.158,0,0,1-.385.735,4.265,4.265,0,0,0-.891,2.368,4.086,4.086,0,0,0,8.154-.276c0-3.506-3.192-5.1-6.157-5.1m-13.3-7.876a26.43,26.43,0,0,1,0,6.548c-.314,2.291-.561,4.1-4.494,4.1-3.741,0-4.311-2.083-4.549-4.037l0-.014a23.722,23.722,0,0,1,0-6.548c.276-2.427.765-4.146,4.549-4.146,3.594,0,4.178,1.941,4.494,4.1M64.441,79.626c.36-3.786.952-6.467,5.322-6.467,4.5,0,5.241,3.6,6.023,7.405.1.484.2.968.3,1.427.093.477.183,1.031.28,1.635.138.839.292,1.771.482,2.723-1.031,4.7-2.669,9.041-7.532,9.041-3.766,0-4.569-2.87-4.879-5.971a48.535,48.535,0,0,1,0-9.794" transform="translate(70.82 70.207)" fill="#f3eadf"/>
    <path id="Path_5867" data-name="Path 5867" d="M125.291,49.92l.045,0h3.624c.339,0,1.371,0,1.371-1.131,0-.966-1.031-.966-1.371-.966H110.121c-.385,0-1.289,0-1.289,1.047,0,.507.339,1.05,1.289,1.05l3.725-.011a9.661,9.661,0,0,1,.219,2.827V75.647c-6.146,4.942-13.436,6.584-20.6,4.648V52.734a8.745,8.745,0,0,1,.24-2.816h3.7c1.065,0,1.289-.615,1.289-1.131,0-.441-.224-.966-1.289-.966H81.25a3.033,3.033,0,0,0-.466.027c-1.8.136-6.166,1.169-7.783,7.806-1.705,7.021,2.079,15.6,9.428,21.438v23.779a8.745,8.745,0,0,1-.24,2.816H78.567c-.339,0-1.371,0-1.371,1.129,0,.968,1.031.968,1.371.968H97.4c.385,0,1.289,0,1.289-1.05,0-.507-.339-1.047-1.289-1.047l-3.725.011a9.75,9.75,0,0,1-.217-2.827v-18.3a24.665,24.665,0,0,0,5.953.769,25.1,25.1,0,0,0,14.65-4.933v22.467a8.761,8.761,0,0,1-.24,2.816h-3.7c-1.065,0-1.289.615-1.289,1.129,0,.443.224.968,1.289.968H128.96c.387,0,1.289,0,1.289-1.05,0-.391-.167-1.047-1.289-1.047l-3.644.011a9.669,9.669,0,0,1-.219-2.827V52.734a10.688,10.688,0,0,1,.195-2.814M75.136,56.208c1.289-4.874,4.465-5.723,5.971-5.494.794.122,1.335.522,1.312,1.009,0,.3.009.631.009,1.011V74.242c-5.87-5.261-8.785-12.384-7.292-18.034" transform="translate(91.608 60.345)" fill="#f3eadf"/>
    <path id="Path_5868" data-name="Path 5868" d="M98.658,114.96c-2.918-.778-9.973-3.266-12.488-9.493L66.331,48.373a1.2,1.2,0,0,0-1.273-.912h-3.7a1.194,1.194,0,0,0-1.269.88L50.521,78.917a24.477,24.477,0,0,0-10.572.192c-7.125,1.726-12.418,6.526-13.481,12.228a11.285,11.285,0,0,0,1.683,8.9,13.281,13.281,0,0,0,10.423,6H53.947c.387,0,1.292,0,1.292-1.05,0-.507-.339-1.047-1.292-1.047H52.179a3.77,3.77,0,0,1-3.241-1.482c-1.1-1.515-1.889-4.969.642-12.843l2.508-8.238c6.356,1.814,12.33,6.15,17.3,12.569,11.432,14.741,21.1,21.972,31.341,23.451l.559.081.317-2.178-.561-.084c-.8-.115-1.613-.269-2.389-.452M47.291,89.236v0c-1.936,6.279-3.626,10.416-5.164,12.649l0,0a4.775,4.775,0,0,1-3.931,1.549,11.27,11.27,0,0,1-8.249-4.476,9.172,9.172,0,0,1-1.316-7.22c.891-4.777,5.646-8.991,11.832-10.488a21.567,21.567,0,0,1,5.1-.608,23.117,23.117,0,0,1,4.286.407Zm5.444-9.783,6.062-19.9L68.853,90.062A35.2,35.2,0,0,0,52.735,79.453" transform="translate(33.079 59.891)" fill="#f3eadf"/>
  </g>
</svg>
