<svg xmlns="http://www.w3.org/2000/svg" xmlns:xlink="http://www.w3.org/1999/xlink" width="190" height="21.27" viewBox="0 0 190 21.27">
  <defs>
    <clipPath id="clip-path">
      <rect id="Rectangle_192" data-name="Rectangle 192" width="190" height="21.27" fill="#fff8ef"/>
    </clipPath>
  </defs>
  <g id="Group_897" data-name="Group 897" transform="translate(0 0)">
    <g id="Group_896" data-name="Group 896" transform="translate(0 0)" clip-path="url(#clip-path)">
      <path id="Path_5802" data-name="Path 5802" d="M58.967,16.3c-.259-.039-.342.174-.394.307a1,1,0,0,1-.862.714c-.419,0-.583-.286-.583-1.021V13.238A4.983,4.983,0,0,0,55.693,9.51,5.063,5.063,0,0,0,52.352,8.2a2.305,2.305,0,0,0,.518-1.649A14.3,14.3,0,0,0,52.676,4.6a14.566,14.566,0,0,1-.2-1.973A1.726,1.726,0,0,1,54.086.755c.29,0,.437.1.437.292,0,.136-.124.28-.268.446a1.636,1.636,0,0,0-.51,1.112,1.854,1.854,0,0,0,1.9,1.85,1.885,1.885,0,0,0,1.9-2A2.652,2.652,0,0,0,54.671,0a2.6,2.6,0,0,0-2.848,2.7,12.532,12.532,0,0,0,.2,1.888,12.294,12.294,0,0,1,.192,1.835c0,1.277-.428,1.752-1.581,1.752h-1.24v-6.4a2.658,2.658,0,0,1,.072-.851h1.12c.322,0,.389-.185.389-.342,0-.134-.067-.292-.389-.292H44.888c-.134,0-.414,0-.414.317,0,.1.04.317.414.317l1.1,0a2.947,2.947,0,0,1,.066.855V16.328a2.659,2.659,0,0,1-.072.851H44.888c-.1,0-.414,0-.414.341,0,.293.312.293.414.293h5.694c.116,0,.389,0,.389-.317,0-.153-.1-.316-.389-.316l-1.126,0a2.944,2.944,0,0,1-.066-.854l0-7.524a.113.113,0,0,1,.076-.019H51.6c1.531,0,2.138.8,2.165,2.846,0,.577-.006,1.113-.012,1.654s-.012,1.113-.012,1.728a3.022,3.022,0,0,0,3.285,3.091,2.146,2.146,0,0,0,2.183-1.31.434.434,0,0,0-.017-.379.279.279,0,0,0-.229-.112" transform="translate(-25.38 0)" fill="#fff8ef"/>
      <path id="Path_5803" data-name="Path 5803" d="M92.9,12.043c-.156,0-.342.068-.342.39v.219c0,1.367-.844,4.915-4.7,4.915H85.6a.294.294,0,0,0-.048,0V9.349a.431.431,0,0,1,.073-.005h1.411a2.3,2.3,0,0,1,2.336,2.311v.195c0,.339.2.39.317.39.155,0,.341-.068.341-.39v-5.6c0-.339-.2-.39-.317-.39-.156,0-.341.068-.341.39v.219a2.276,2.276,0,0,1-2.336,2.263H85.6l-.048,0V1.321a.323.323,0,0,1,.073-.007h2.433c2.54,0,3.7,2.447,3.7,4.72v.244c0,.322.185.39.341.39.08,0,.341-.028.341-.39V1.046A.345.345,0,0,0,92.05.68h-11c-.134,0-.414,0-.414.317,0,.1.04.317.414.317l1.1,0a2.943,2.943,0,0,1,.066.854V16.716a2.642,2.642,0,0,1-.073.851H81.051c-.1,0-.414,0-.414.341,0,.292.311.292.414.292h11.8c.362,0,.391-.261.391-.341V12.433c0-.362-.261-.39-.341-.39" transform="translate(-46.017 -0.388)" fill="#fff8ef"/>
      <path id="Path_5804" data-name="Path 5804" d="M177.79,1.315H178.9c.1,0,.414,0,.414-.342,0-.292-.311-.292-.414-.292h-5.7c-.116,0-.389,0-.389.317,0,.154.1.317.389.317l1.126,0a2.928,2.928,0,0,1,.066.854V9.091a6.872,6.872,0,0,1-6.228,1.405V2.165a2.653,2.653,0,0,1,.072-.851h1.119c.322,0,.39-.186.39-.342,0-.134-.067-.292-.39-.292h-4.883a.925.925,0,0,0-.141.008c-.545.042-1.864.353-2.353,2.36-.516,2.123.628,4.717,2.849,6.481v7.188a2.655,2.655,0,0,1-.072.851h-1.095c-.1,0-.414,0-.414.341,0,.292.312.292.414.292h5.694c.117,0,.39,0,.39-.317,0-.153-.1-.317-.39-.317l-1.126,0a2.945,2.945,0,0,1-.066-.854V11.184a7.459,7.459,0,0,0,1.8.232A7.589,7.589,0,0,0,174.4,9.925v6.792a2.658,2.658,0,0,1-.072.851H173.2c-.322,0-.389.186-.389.341,0,.134.067.292.389.292h5.7c.116,0,.389,0,.389-.317,0-.118-.051-.317-.389-.317l-1.1,0a2.928,2.928,0,0,1-.066-.854V2.165a3.224,3.224,0,0,1,.059-.85m-15.161,1.9c.389-1.473,1.349-1.73,1.805-1.661.24.037.4.158.4.305,0,.091,0,.191,0,.306v6.5c-1.774-1.591-2.655-3.744-2.2-5.452" transform="translate(-92.369 -0.388)" fill="#fff8ef"/>
      <path id="Path_5805" data-name="Path 5805" d="M220.09.68h-4.4c-.34,0-.39.2-.39.317s.051.317.39.317h.267c1.372,0,2.068.847,2.068,5.474V12.9c0,3.491-1.382,4.915-4.769,4.915-2.26,0-3.5-1.175-3.5-3.309V2.165a2.661,2.661,0,0,1,.072-.851h1.29c.339,0,.39-.2.39-.317s-.051-.317-.39-.317h-5.889c-.339,0-.389.2-.389.317,0,.095.038.317.389.317l1.121,0a2.658,2.658,0,0,1,.071.849V13.529c0,2.407,2.251,4.965,6.424,4.965,4,0,5.865-1.756,5.865-5.525V6.618c0-4.5.35-5.3,1.337-5.3h.049c.352,0,.389-.222.389-.317,0-.118-.051-.317-.389-.317" transform="translate(-116.892 -0.388)" fill="#fff8ef"/>
      <path id="Path_5806" data-name="Path 5806" d="M258.887,1.315H260c.374,0,.414-.222.414-.317,0-.317-.279-.317-.414-.317h-4.259a.413.413,0,0,0-.434.325l-3.264,13.2L248.259.992A.433.433,0,0,0,247.8.68h-4.4c-.117,0-.39,0-.39.317,0,.153.1.317.39.317l1.174,0a2.931,2.931,0,0,1,.066.855v10.1c0,4.5-.35,5.3-1.338,5.3h-.048c-.287,0-.39.164-.39.317,0,.317.273.317.39.317h4.234c.117,0,.39,0,.39-.317,0-.146-.1-.317-.39-.317h-.195c-1.407,0-1.995-.761-1.995-5.475V2.84l4.558,15.269a.409.409,0,0,0,.405.337h1.071a.375.375,0,0,0,.409-.373l3.751-15.028V16.716a2.613,2.613,0,0,1-.073.851h-1.094c-.1,0-.414,0-.414.341,0,.292.312.292.414.292H260c.135,0,.414,0,.414-.317,0-.1-.04-.317-.414-.317l-1.1,0a2.913,2.913,0,0,1-.067-.855V2.165a3.208,3.208,0,0,1,.059-.851" transform="translate(-138.595 -0.388)" fill="#fff8ef"/>
      <path id="Path_5807" data-name="Path 5807" d="M294.4.68h-7.251c-.385,0-.414.243-.414.317,0,.052.02.316.414.316l1.1,0a2.928,2.928,0,0,1,.066.854V16.716a2.66,2.66,0,0,1-.072.851h-1.1c-.1,0-.414,0-.414.341,0,.292.312.292.414.292h6.157c.117,0,.39,0,.39-.317,0-.153-.1-.316-.39-.316l-1.588,0a2.932,2.932,0,0,1-.066-.855v-6.05s.01-.033.073-.033H294.5c2.7,0,5.428-1.535,5.428-4.965,0-2.412-1.452-4.989-5.525-4.989M291.659,10h-.008V1.323a.254.254,0,0,1,.072-.009h2.263c1.142,0,2.311.515,2.311,4.331,0,3.615-.924,4.355-2.311,4.355h-2.328" transform="translate(-163.631 -0.388)" fill="#fff8ef"/>
      <path id="Path_5808" data-name="Path 5808" d="M335.111,1.315h1.109c.1,0,.414,0,.414-.342,0-.292-.311-.292-.414-.292h-5.695c-.117,0-.39,0-.39.317,0,.153.1.317.39.317l1.126,0a2.934,2.934,0,0,1,.066.855V8.808c0,.016-.016.024-.048.024l-6.18-.024V2.165a2.644,2.644,0,0,1,.073-.851h1.119c.322,0,.389-.186.389-.342,0-.134-.067-.292-.389-.292h-5.694c-.134,0-.414,0-.414.317,0,.095.041.317.414.317l1.1,0a2.948,2.948,0,0,1,.066.855V16.716a2.66,2.66,0,0,1-.072.851h-1.095c-.1,0-.414,0-.414.341,0,.292.312.292.414.292h5.694c.116,0,.389,0,.389-.317,0-.153-.1-.317-.389-.317l-1.126,0a2.948,2.948,0,0,1-.066-.855l.023-7.275h6.157c.031,0,.047.005.048.024v7.251a2.661,2.661,0,0,1-.072.851h-1.12c-.322,0-.39.186-.39.341,0,.134.067.292.39.292h5.695c.117,0,.39,0,.39-.317,0-.118-.051-.317-.39-.317l-1.1,0a2.932,2.932,0,0,1-.066-.855V2.165a3.231,3.231,0,0,1,.059-.851" transform="translate(-182.942 -0.388)" fill="#fff8ef"/>
      <path id="Path_5809" data-name="Path 5809" d="M375.39,16.692c-.259-.039-.342.174-.394.307a1,1,0,0,1-.861.714c-.426,0-.608-.305-.608-1.021,0-.331.005-.8.01-1.3.006-.565.013-1.166.013-1.643a4.5,4.5,0,0,0-3.5-4.729c1.868-.457,3.6-1.786,3.6-3.984,0-4.042-4.135-4.356-5.4-4.356h-7.13c-.385,0-.414.243-.414.317,0,.052.02.316.414.316l1.1,0a2.911,2.911,0,0,1,.067.854V16.716a2.647,2.647,0,0,1-.073.851h-1.1c-.1,0-.414,0-.414.341,0,.292.312.292.414.292h5.694c.117,0,.39,0,.39-.317,0-.153-.1-.316-.39-.316l-1.125,0a2.913,2.913,0,0,1-.067-.855V9.328a.255.255,0,0,1,.072-.009h2.36c1.514,0,2.114.792,2.141,2.822,0,.577-.006,1.083-.012,1.595s-.012,1.051-.012,1.666a3.023,3.023,0,0,0,3.286,3.091,2.172,2.172,0,0,0,2.181-1.309.432.432,0,0,0-.015-.379.279.279,0,0,0-.23-.113m-9.772-7.984V1.323a.251.251,0,0,1,.072-.009h2.458c.93,0,2.165.389,2.165,3.747,0,3.216-1.057,3.649-2.092,3.649h-2.555l-.048,0" transform="translate(-205.842 -0.388)" fill="#fff8ef"/>
      <path id="Path_5810" data-name="Path 5810" d="M402.294,1.315h1.133c.323,0,.39-.186.39-.342,0-.134-.067-.292-.39-.292h-5.694c-.134,0-.414,0-.414.317,0,.095.04.317.414.317l1.1,0a2.911,2.911,0,0,1,.067.855V16.716a2.658,2.658,0,0,1-.072.851h-1.1c-.1,0-.414,0-.414.341,0,.292.312.292.414.292h5.694c.117,0,.39,0,.39-.317,0-.153-.1-.317-.39-.317l-1.125,0a2.91,2.91,0,0,1-.067-.855V2.165a3.206,3.206,0,0,1,.059-.851" transform="translate(-226.738 -0.388)" fill="#fff8ef"/>
      <path id="Path_5811" data-name="Path 5811" d="M422.8,7.429c-2.071-1.038-4.027-2.018-4.027-4.289A2.325,2.325,0,0,1,421.277.585c2.424,0,3.99,2.044,3.99,5.207v.219c0,.34.2.39.317.39.08,0,.341-.028.341-.39V.633c0-.362-.261-.39-.341-.39-.119,0-.317.051-.317.39V.828c0,.053-.01.08-.017.085-.088.061-.5-.1-.715-.184l-.155-.06A7.907,7.907,0,0,0,421.423,0a4.923,4.923,0,0,0-5.135,5.037c0,3.054,2.344,4.259,4.611,5.423,2.008,1.032,3.906,2.007,3.906,4.213,0,1.809-1.18,2.846-3.236,2.846-3.438,0-4.72-3.686-4.72-6.01v-.219c0-.182-.039-.39-.341-.39-.118,0-.318.051-.318.39v6.157c0,.374.239.414.342.414.21,0,.317-.139.317-.414V17.3c0-.06.012-.1.034-.114.152-.1.786.134,1.03.228a10.894,10.894,0,0,0,3.632.69c3.4,0,5.962-2.25,5.962-5.233,0-3.085-2.393-4.284-4.708-5.444" transform="translate(-237.508 0)" fill="#fff8ef"/>
      <path id="Path_5812" data-name="Path 5812" d="M21.9,20.51c-.882-.236-3.015-.987-3.775-2.87l-6-17.259a.362.362,0,0,0-.384-.275H10.623a.36.36,0,0,0-.383.266L7.348,9.615a7.409,7.409,0,0,0-3.2.058,5.133,5.133,0,0,0-4.076,3.7,3.416,3.416,0,0,0,.509,2.689,4.016,4.016,0,0,0,3.151,1.813H8.384c.117,0,.39,0,.39-.317,0-.153-.1-.316-.39-.316H7.849a1.138,1.138,0,0,1-.98-.448c-.334-.458-.571-1.5.194-3.882l.758-2.49a10.383,10.383,0,0,1,5.23,3.8c3.456,4.456,6.378,6.643,9.474,7.09l.169.024.1-.659-.17-.025c-.243-.035-.488-.082-.722-.137M6.371,12.734h0A15.565,15.565,0,0,1,4.81,16.558h0a1.441,1.441,0,0,1-1.188.468A3.4,3.4,0,0,1,1.13,15.674a2.772,2.772,0,0,1-.4-2.183,4.534,4.534,0,0,1,3.577-3.17,6.5,6.5,0,0,1,1.542-.184,6.994,6.994,0,0,1,1.3.123ZM8.017,9.777,9.849,3.761l3.04,9.223A10.638,10.638,0,0,0,8.017,9.777" transform="translate(0 -0.061)" fill="#fff8ef"/>
      <path id="Path_5813" data-name="Path 5813" d="M135.327,16.328a2.269,2.269,0,0,0-2.268,1.8,3.372,3.372,0,0,0-1.6-.783,2.5,2.5,0,0,0,2.112-2.405c0-1.327-1.125-2.665-3.638-2.665-2.682,0-3.637,1.385-3.637,2.682a2.57,2.57,0,0,0,2.28,2.417,3.47,3.47,0,0,0-2.649,3.583,3.451,3.451,0,0,0,3.721,3.788,2.646,2.646,0,0,0,2.727-2.241l.04.171a2.4,2.4,0,0,0,2.344,2.036,1.779,1.779,0,0,0,1.993-1.523.273.273,0,0,0-.032-.211.249.249,0,0,0-.185-.094c-.215,0-.241.209-.25.283-.069.43-.313.89-.789.89-.1,0-.411,0-.572-.714l-.129-.547c-.218-.926-.444-1.885-.625-2.737a3.651,3.651,0,0,0-.772-1.561c.158-.536.586-1.629,1.461-1.629.01,0,.251,0,.251.15a.657.657,0,0,1-.116.222,1.289,1.289,0,0,0-.269.716,1.235,1.235,0,0,0,2.465-.084,1.664,1.664,0,0,0-1.861-1.543m-4.022-2.381a7.974,7.974,0,0,1,0,1.98c-.095.692-.17,1.239-1.359,1.239-1.131,0-1.3-.63-1.375-1.221v0a7.155,7.155,0,0,1,0-1.979c.083-.734.231-1.253,1.374-1.253,1.087,0,1.263.586,1.359,1.239m-2.867,5.577c.109-1.145.288-1.955,1.609-1.955,1.361,0,1.585,1.087,1.821,2.239.03.146.06.292.091.431s.055.312.085.495c.042.254.088.535.145.823-.312,1.423-.807,2.733-2.277,2.733-1.138,0-1.382-.867-1.475-1.8a14.732,14.732,0,0,1,0-2.96" transform="translate(-71.861 -7.003)" fill="#fff8ef"/>
    </g>
  </g>
</svg>
