<svg xmlns="http://www.w3.org/2000/svg" xmlns:xlink="http://www.w3.org/1999/xlink" width="796" height="131" viewBox="0 0 796 131">
  <defs>
    <clipPath id="clip-path">
      <rect id="Rectangle_198" data-name="Rectangle 198" width="796" height="131" fill="#fff8ef"/>
    </clipPath>
  </defs>
  <g id="Group_902" data-name="Group 902" transform="translate(0 0)">
    <g id="Group_901" data-name="Group 901" transform="translate(0 0)" clip-path="url(#clip-path)">
      <path id="Path_5817" data-name="Path 5817" d="M87.286,58.582H84.937L80.81,44.893c-.195-.607-.415-1.372-.656-2.294a13.05,13.05,0,0,1-.378-1.667,32.281,32.281,0,0,1-.98,4.045l-4,13.606H72.446l-5.44-20.449h2.518l3.231,12.632a48.273,48.273,0,0,1,.98,4.812,34.146,34.146,0,0,1,1.117-5.007l3.664-12.437h2.518L84.88,50.682a38.441,38.441,0,0,1,1.134,4.9,40.992,40.992,0,0,1,1.005-4.838l3.217-12.606h2.518Z" transform="translate(124.93 71.096)" fill="#fff8ef"/>
      <rect id="Rectangle_197" data-name="Rectangle 197" width="2.378" height="20.449" transform="translate(235.212 109.23)" fill="#fff8ef"/>
      <path id="Path_5818" data-name="Path 5818" d="M105.874,58.582h-2.713L91.984,41.424h-.112q.223,3.021.223,5.537V58.582H89.9V38.133h2.684l11.148,17.092h.112c-.02-.252-.06-1.057-.126-2.426s-.089-2.34-.069-2.927V38.133h2.223Z" transform="translate(167.618 71.096)" fill="#fff8ef"/>
      <path id="Path_5819" data-name="Path 5819" d="M113.839,58.582h-11.4V38.133h11.4V40.25h-9.02v6.583h8.476v2.1h-8.476v7.525h9.02Z" transform="translate(190.997 71.095)" fill="#fff8ef"/>
      <path id="Path_5820" data-name="Path 5820" d="M129.649,58.582l-6.938-18.126H122.6q.193,2.157.195,5.119V58.582H120.6V38.133h3.581L130.657,55h.112L137.3,38.133h3.552V58.582h-2.377V45.406q0-2.264.195-4.921h-.112l-6.992,18.1Z" transform="translate(224.853 71.096)" fill="#fff8ef"/>
      <path id="Path_5821" data-name="Path 5821" d="M146.027,58.582h-11.4V38.133h11.4V40.25h-9.02v6.583h8.476v2.1h-8.476v7.525h9.02Z" transform="translate(251.009 71.095)" fill="#fff8ef"/>
      <path id="Path_5822" data-name="Path 5822" d="M147.568,50.078v8.5H145.19V38.133H150.8q3.76,0,5.557,1.444a5.219,5.219,0,0,1,1.8,4.337q0,4.052-4.111,5.483l5.551,9.186h-2.81l-4.953-8.5Zm0-2.042h3.26a5.61,5.61,0,0,0,3.692-1,3.726,3.726,0,0,0,1.174-3,3.413,3.413,0,0,0-1.2-2.922,6.46,6.46,0,0,0-3.838-.9h-3.091Z" transform="translate(270.7 71.096)" fill="#fff8ef"/>
      <path id="Path_5823" data-name="Path 5823" d="M165.819,40.157A6.687,6.687,0,0,0,160.5,42.4a9.048,9.048,0,0,0-1.951,6.15,9.247,9.247,0,0,0,1.879,6.2,6.7,6.7,0,0,0,5.365,2.188,18.208,18.208,0,0,0,4.881-.771v2.085a15,15,0,0,1-5.245.8,8.873,8.873,0,0,1-6.972-2.741Q156,53.569,156,48.522a12.335,12.335,0,0,1,1.18-5.54,8.5,8.5,0,0,1,3.414-3.664,10.319,10.319,0,0,1,5.253-1.286,12.706,12.706,0,0,1,5.623,1.174l-1.008,2.042a10.843,10.843,0,0,0-4.643-1.091" transform="translate(290.855 70.908)" fill="#fff8ef"/>
      <path id="Path_5824" data-name="Path 5824" d="M183.205,58.582h-2.378V48.96h-10.77v9.622H167.68V38.133h2.378v8.7h10.77v-8.7h2.378Z" transform="translate(312.632 71.095)" fill="#fff8ef"/>
      <path id="Path_5825" data-name="Path 5825" d="M194.74,58.636l-2.544-6.5H184l-2.515,6.5h-2.406L187.16,38.1h2L197.2,58.636Zm-3.286-8.645-2.378-6.333c-.306-.8-.627-1.787-.951-2.953a27.286,27.286,0,0,1-.882,2.953l-2.406,6.333Z" transform="translate(333.881 71.042)" fill="#fff8ef"/>
      <path id="Path_5826" data-name="Path 5826" d="M207.358,58.582h-2.713L193.468,41.424h-.112q.223,3.021.223,5.537V58.582h-2.194V38.133h2.684l11.148,17.092h.112c-.02-.252-.06-1.057-.126-2.426s-.089-2.34-.069-2.927V38.133h2.223Z" transform="translate(356.83 71.096)" fill="#fff8ef"/>
      <path id="Path_5827" data-name="Path 5827" d="M211.886,58.582h-2.377V40.25h-6.477V38.133h15.331V40.25h-6.476Z" transform="translate(378.543 71.095)" fill="#fff8ef"/>
      <path id="Path_5828" data-name="Path 5828" d="M226.861,53.333a5.021,5.021,0,0,1-1.959,4.208,8.5,8.5,0,0,1-5.314,1.51,13.309,13.309,0,0,1-5.594-.934V55.822a14.9,14.9,0,0,0,2.741.839,14.53,14.53,0,0,0,2.936.309,5.927,5.927,0,0,0,3.581-.905,2.959,2.959,0,0,0,1.2-2.509,3.221,3.221,0,0,0-.427-1.742,3.961,3.961,0,0,0-1.426-1.252,20.035,20.035,0,0,0-3.042-1.3,9.69,9.69,0,0,1-4.079-2.418,5.359,5.359,0,0,1-1.22-3.652,4.535,4.535,0,0,1,1.776-3.761,7.368,7.368,0,0,1,4.7-1.4,13.821,13.821,0,0,1,5.609,1.12l-.739,2.068a12.662,12.662,0,0,0-4.924-1.063,4.735,4.735,0,0,0-2.95.814,2.656,2.656,0,0,0-1.066,2.249,3.416,3.416,0,0,0,.392,1.742,3.719,3.719,0,0,0,1.321,1.246,16.562,16.562,0,0,0,2.847,1.252,11.23,11.23,0,0,1,4.426,2.463,4.831,4.831,0,0,1,1.212,3.412" transform="translate(398.982 70.906)" fill="#fff8ef"/>
      <path id="Path_5829" data-name="Path 5829" d="M88.645,68.306c-1.086-.166-1.432.728-1.65,1.286a4.176,4.176,0,0,1-3.609,2.993c-1.759,0-2.443-1.2-2.443-4.279V55.462c0-6.479-2.08-11.879-6.015-15.62a21.207,21.207,0,0,0-14-5.5c1.455-1.532,2.168-3.813,2.168-6.912a60.109,60.109,0,0,0-.811-8.149,61.053,61.053,0,0,1-.819-8.264c0-3.807,2.357-7.849,6.726-7.849,1.215,0,1.83.41,1.83,1.223,0,.567-.518,1.172-1.123,1.868a6.858,6.858,0,0,0-2.137,4.655,7.772,7.772,0,0,0,7.955,7.751c4.609,0,7.955-3.518,7.955-8.361,0-5.064-4.5-10.3-12.031-10.3C63.4,0,58.714,4.443,58.714,11.317a52.573,52.573,0,0,0,.822,7.909,51.225,51.225,0,0,1,.808,7.688c0,5.351-1.8,7.339-6.625,7.339h-5c-.077,0-.143,0-.2,0V7.445c0-1.146,0-3.283.3-3.566h4.689c1.352,0,1.633-.776,1.633-1.429,0-.561-.281-1.226-1.633-1.226H29.663c-.564,0-1.736,0-1.736,1.329,0,.4.169,1.326,1.736,1.326l4.612-.014c.275.3.275,2.435.275,3.581V68.409c0,1.149,0,3.283-.3,3.566H29.663c-.43,0-1.736,0-1.736,1.429,0,1.226,1.306,1.226,1.736,1.226H53.515c.49,0,1.633,0,1.633-1.329,0-.642-.43-1.326-1.633-1.326l-4.715.014c-.275-.3-.275-2.432-.275-3.581l-.02-31.523a.476.476,0,0,1,.321-.077H57.8c6.414,0,8.957,3.346,9.069,11.925,0,2.42-.023,4.663-.049,6.929-.026,2.32-.052,4.663-.052,7.241,0,7.745,5.531,12.95,13.764,12.95,4.512,0,8.015-2.1,9.143-5.488a1.818,1.818,0,0,0-.069-1.587,1.17,1.17,0,0,0-.96-.473" transform="translate(52.069 -0.001)" fill="#fff8ef"/>
      <path id="Path_5830" data-name="Path 5830" d="M102.017,48.034c-.653,0-1.432.284-1.432,1.633v.919c0,5.729-3.532,20.593-19.673,20.593H71.43a1.2,1.2,0,0,0-.2,0V36.745a1.8,1.8,0,0,1,.3-.02h5.915a9.629,9.629,0,0,1,9.782,9.682v.816c0,1.421.834,1.633,1.329,1.633.65,0,1.429-.284,1.429-1.633V23.775c0-1.421-.831-1.636-1.326-1.636-.653,0-1.432.286-1.432,1.636v.917a9.53,9.53,0,0,1-9.782,9.478H71.43a1.875,1.875,0,0,1-.2-.009V3.114a1.2,1.2,0,0,1,.3-.032H81.728c10.644,0,15.494,10.252,15.494,19.773v1.023c0,1.349.776,1.633,1.429,1.633.335,0,1.429-.117,1.429-1.633V1.959A1.442,1.442,0,0,0,98.447.427H52.367c-.561,0-1.733,0-1.733,1.329,0,.4.169,1.326,1.733,1.326l4.615-.014c.278.3.278,2.432.278,3.581V67.61c0,1.149,0,3.286-.3,3.569H52.367c-.427,0-1.733,0-1.733,1.429,0,1.223,1.306,1.223,1.733,1.223H101.81c1.518,0,1.636-1.091,1.636-1.429V49.667c0-1.515-1.094-1.633-1.429-1.633" transform="translate(94.405 0.795)" fill="#fff8ef"/>
      <path id="Path_5831" data-name="Path 5831" d="M168.369,3.085l.057,0h4.589c.43,0,1.736,0,1.736-1.432,0-1.223-1.306-1.223-1.736-1.223H149.157c-.487,0-1.633,0-1.633,1.326,0,.642.43,1.329,1.633,1.329l4.718-.014c.278.3.278,2.432.278,3.581V35.666c-7.783,6.259-17.015,8.338-26.092,5.886V6.649c0-1.149,0-3.286.3-3.566h4.689c1.349,0,1.633-.779,1.633-1.432,0-.559-.284-1.223-1.633-1.223H112.6a3.841,3.841,0,0,0-.59.034c-2.28.172-7.809,1.481-9.857,9.885-2.16,8.891,2.632,19.762,11.939,27.149V67.61c0,1.149,0,3.286-.3,3.566H109.2c-.43,0-1.736,0-1.736,1.429,0,1.226,1.306,1.226,1.736,1.226h23.855c.487,0,1.633,0,1.633-1.329,0-.642-.43-1.326-1.633-1.326l-4.718.014c-.275-.3-.275-2.432-.275-3.581V44.431a31.236,31.236,0,0,0,7.539.974,31.786,31.786,0,0,0,18.553-6.247V67.61c0,1.146,0,3.283-.3,3.566h-4.692c-1.349,0-1.633.779-1.633,1.429,0,.561.284,1.226,1.633,1.226h23.858c.49,0,1.633,0,1.633-1.329,0-.5-.212-1.326-1.633-1.326l-4.615.014c-.278-.3-.278-2.435-.278-3.581V6.649a13.534,13.534,0,0,1,.246-3.563m-63.516,7.963c1.633-6.173,5.654-7.247,7.562-6.958,1.005.155,1.69.662,1.661,1.278.006.384.011.8.011,1.28V33.887c-7.433-6.663-11.126-15.683-9.235-22.838" transform="translate(189.496 0.795)" fill="#fff8ef"/>
      <path id="Path_5832" data-name="Path 5832" d="M192.542.427h-18.45c-1.424,0-1.636.834-1.636,1.329s.212,1.326,1.636,1.326h1.117c5.746,0,8.665,3.549,8.665,22.936V51.606c0,14.626-5.786,20.59-19.977,20.59-9.467,0-14.68-4.921-14.68-13.861V6.649c0-1.146,0-3.283.3-3.566h5.405c1.421,0,1.633-.831,1.633-1.326S156.344.427,154.923.427H130.252c-1.421,0-1.633.834-1.633,1.329,0,.4.16,1.326,1.633,1.326l4.7.011c.3.255.3,2.4.3,3.555V54.256c0,10.083,9.433,20.8,26.914,20.8,16.763,0,24.571-7.356,24.571-23.145V25.3c0-18.865,1.469-22.222,5.6-22.222h.206c1.472,0,1.633-.928,1.633-1.326,0-.5-.212-1.329-1.633-1.329" transform="translate(239.804 0.795)" fill="#fff8ef"/>
      <path id="Path_5833" data-name="Path 5833" d="M219.628,3.087l.057,0h4.589c1.564,0,1.736-.931,1.736-1.329,0-1.329-1.174-1.329-1.736-1.329H206.432a1.729,1.729,0,0,0-1.816,1.361L190.938,57.073,175.1,1.735A1.816,1.816,0,0,0,173.2.426h-18.45c-.49,0-1.633,0-1.633,1.329,0,.642.43,1.329,1.633,1.329l4.918-.014c.278.3.278,2.432.278,3.581V48.956c0,18.865-1.469,22.222-5.606,22.222h-.2c-1.2,0-1.633.685-1.633,1.326,0,1.329,1.146,1.329,1.633,1.329h17.74c.49,0,1.636,0,1.636-1.329,0-.61-.427-1.326-1.636-1.326h-.816c-5.9,0-8.358-3.188-8.358-22.936V9.475l19.1,63.969a1.716,1.716,0,0,0,1.7,1.409h4.489a1.569,1.569,0,0,0,1.713-1.564l15.717-62.958v57.28c0,1.146,0,3.283-.307,3.566H200.52c-.43,0-1.736,0-1.736,1.429,0,1.226,1.306,1.226,1.736,1.226h23.755c.561,0,1.736,0,1.736-1.329,0-.4-.172-1.326-1.736-1.326l-4.615.014c-.278-.3-.278-2.435-.278-3.581V6.65a13.534,13.534,0,0,1,.246-3.563" transform="translate(284.329 0.793)" fill="#fff8ef"/>
      <path id="Path_5834" data-name="Path 5834" d="M212.161.427H181.784c-1.613,0-1.736,1.017-1.736,1.329,0,.221.083,1.326,1.736,1.326l4.615-.014c.278.3.278,2.435.278,3.581V67.613c0,1.146,0,3.283-.3,3.566h-4.589c-.43,0-1.736,0-1.736,1.429,0,1.226,1.306,1.226,1.736,1.226h25.792c.49,0,1.636,0,1.636-1.329,0-.642-.43-1.326-1.636-1.326l-6.654.014c-.275-.3-.275-2.435-.275-3.581l0-25.348c0-.006.04-.138.3-.138h11.624c11.317,0,22.738-6.431,22.738-20.8,0-10.1-6.081-20.9-23.148-20.9M200.678,39.469h-.032V3.12a1.084,1.084,0,0,1,.3-.037h9.481c4.789,0,9.682,2.157,9.682,18.143,0,15.144-3.87,18.247-9.682,18.247H200.85c-.074,0-.132,0-.172,0" transform="translate(335.691 0.795)" fill="#fff8ef"/>
      <path id="Path_5835" data-name="Path 5835" d="M262.2,3.087l.057,0h4.589c.43,0,1.736,0,1.736-1.432,0-1.226-1.306-1.226-1.736-1.226H242.991c-.487,0-1.633,0-1.633,1.329,0,.642.43,1.329,1.633,1.329l4.718-.014c.278.3.278,2.432.278,3.581V34.479c0,.066-.069.1-.2.1l-25.889-.1V6.65c0-1.149,0-3.286.3-3.566h4.686c1.352,0,1.633-.779,1.633-1.432,0-.559-.281-1.226-1.633-1.226H203.032c-.564,0-1.736,0-1.736,1.329,0,.4.169,1.329,1.736,1.329l4.612-.014c.275.3.275,2.432.275,3.581V67.612c0,1.149,0,3.283-.3,3.566h-4.586c-.43,0-1.736,0-1.736,1.429,0,1.226,1.306,1.226,1.736,1.226h23.852c.49,0,1.633,0,1.633-1.329,0-.642-.43-1.326-1.633-1.326l-4.715.014c-.275-.3-.275-2.432-.275-3.581l.095-30.478h25.794c.132,0,.2.023.2.1v30.38c0,1.146,0,3.283-.3,3.566h-4.692c-1.349,0-1.633.776-1.633,1.429,0,.559.284,1.226,1.633,1.226h23.858c.487,0,1.633,0,1.633-1.329,0-.5-.212-1.326-1.633-1.326l-4.615.014c-.278-.3-.278-2.435-.278-3.581V6.65a13.535,13.535,0,0,1,.246-3.563" transform="translate(375.307 0.793)" fill="#fff8ef"/>
      <path id="Path_5836" data-name="Path 5836" d="M288.031,67.509c-1.086-.163-1.435.73-1.65,1.286a4.179,4.179,0,0,1-3.609,2.993c-1.785,0-2.547-1.28-2.547-4.279,0-1.386.023-3.357.046-5.445.026-2.366.054-4.887.054-6.883.086-10.235-5.328-17.416-14.677-19.811,7.826-1.913,15.087-7.482,15.087-16.691C280.735,1.744,263.411.426,258.1.426H228.23c-1.61,0-1.736,1.017-1.736,1.329,0,.221.083,1.329,1.736,1.329l4.615-.014c.278.3.278,2.432.278,3.581V67.612c0,1.146,0,3.283-.3,3.566H228.23c-.43,0-1.736,0-1.736,1.429,0,1.226,1.306,1.226,1.736,1.226h23.855c.49,0,1.633,0,1.633-1.329,0-.642-.427-1.326-1.633-1.326l-4.715.014c-.278-.3-.278-2.435-.278-3.581V36.658a1.112,1.112,0,0,1,.3-.034h9.891c6.342,0,8.857,3.317,8.969,11.822,0,2.42-.023,4.537-.049,6.68-.026,2.191-.052,4.406-.052,6.984,0,7.743,5.531,12.947,13.764,12.947,4.443,0,8.029-2.151,9.141-5.483a1.809,1.809,0,0,0-.063-1.59,1.168,1.168,0,0,0-.962-.476M247.092,34.06V3.119a1.112,1.112,0,0,1,.3-.034h10.3c3.893,0,9.069,1.624,9.069,15.7,0,13.472-4.431,15.288-8.765,15.288H247.3c-.086,0-.152-.006-.2-.009" transform="translate(422.287 0.793)" fill="#fff8ef"/>
      <path id="Path_5837" data-name="Path 5837" d="M270.331,3.087l.057,0h4.686c1.352,0,1.638-.779,1.638-1.432,0-.559-.286-1.226-1.638-1.226H251.222c-.564,0-1.736,0-1.736,1.329,0,.4.169,1.329,1.736,1.329l4.612-.014c.281.3.281,2.432.281,3.581V67.612c0,1.146,0,3.283-.3,3.566h-4.589c-.43,0-1.736,0-1.736,1.429,0,1.226,1.306,1.226,1.736,1.226h23.852c.49,0,1.638,0,1.638-1.329,0-.642-.43-1.326-1.638-1.326l-4.712.014c-.278-.3-.278-2.435-.278-3.581V6.65a13.531,13.531,0,0,1,.246-3.563" transform="translate(465.155 0.793)" fill="#fff8ef"/>
      <path id="Path_5838" data-name="Path 5838" d="M289.024,31.122c-8.676-4.348-16.872-8.456-16.872-17.969,0-6.7,3.924-10.7,10.5-10.7,10.154,0,16.717,8.562,16.717,21.816v.917c0,1.421.831,1.636,1.326,1.636.335,0,1.429-.117,1.429-1.636V2.652c0-1.518-1.094-1.636-1.429-1.636-.5,0-1.326.212-1.326,1.636v.816c0,.221-.046.332-.074.352-.364.255-2.08-.41-2.993-.768l-.65-.252A33.1,33.1,0,0,0,283.261,0c-14.125,0-21.515,10.616-21.515,21.1,0,12.8,9.819,17.843,19.318,22.721,8.416,4.322,16.365,8.407,16.365,17.651,0,7.579-4.941,11.925-13.557,11.925-14.405,0-19.773-15.442-19.773-25.176V47.3c0-.759-.16-1.633-1.429-1.633-.5,0-1.332.212-1.332,1.633V73.1c0,1.564,1,1.733,1.432,1.733.882,0,1.329-.581,1.329-1.733v-.613c0-.252.049-.412.143-.478.639-.438,3.294.564,4.317.954a45.619,45.619,0,0,0,15.216,2.89c14.239,0,24.978-9.424,24.978-21.922,0-12.922-10.028-17.949-19.727-22.807" transform="translate(487.249 -0.001)" fill="#fff8ef"/>
      <path id="Path_5839" data-name="Path 5839" d="M91.743,85.548c-3.7-.985-12.629-4.136-15.815-12.022L50.8,1.221A1.524,1.524,0,0,0,49.192.067H44.505A1.512,1.512,0,0,0,42.9,1.181L30.782,39.9a31,31,0,0,0-13.388.243C8.37,42.332,1.668,48.41.321,55.632A14.291,14.291,0,0,0,2.452,66.9c4.666,6.623,10.77,7.519,13.2,7.6h19.47c.49,0,1.636,0,1.636-1.329,0-.642-.43-1.326-1.636-1.326h-2.24a4.774,4.774,0,0,1-4.1-1.876c-1.4-1.919-2.392-6.293.814-16.264l3.177-10.432c8.049,2.3,15.614,7.788,21.913,15.918C69.157,77.851,81.4,87.009,94.37,88.882l.708.1.4-2.758-.71-.106c-1.017-.146-2.042-.341-3.025-.573M26.691,52.971v0c-2.452,7.952-4.592,13.191-6.54,16.018l.006,0a6.047,6.047,0,0,1-4.978,1.962A14.272,14.272,0,0,1,4.732,65.288a11.616,11.616,0,0,1-1.667-9.143c1.129-6.05,7.15-11.386,14.984-13.282a27.313,27.313,0,0,1,6.459-.771,29.276,29.276,0,0,1,5.428.516Zm6.895-12.389,7.677-25.2L54,54.016c-6.107-6.763-13.142-11.343-20.412-13.434" transform="translate(0 0.124)" fill="#fff8ef"/>
      <path id="Path_5840" data-name="Path 5840" d="M118.463,24.7c-4.669,0-7.786,2.463-9.5,7.528a14.158,14.158,0,0,0-6.714-3.28c5.591-1.51,8.848-5.153,8.848-10.074,0-5.557-4.712-11.166-15.239-11.166-11.237,0-15.239,5.8-15.239,11.237,0,4.978,3.672,8.782,9.55,10.126-7,1.9-11.1,7.365-11.1,15.01,0,9.937,5.829,15.872,15.591,15.872,7.264,0,10-4.48,11.426-9.39l.169.716c.922,4.125,3.987,8.53,9.819,8.53,4.746,0,7.791-2.329,8.35-6.379a1.14,1.14,0,0,0-.132-.885,1.056,1.056,0,0,0-.776-.392c-.9,0-1.008.877-1.048,1.189-.289,1.8-1.309,3.727-3.306,3.727-.424,0-1.722,0-2.4-2.99l-.539-2.292c-.914-3.884-1.859-7.9-2.621-11.469a15.267,15.267,0,0,0-3.231-6.542c.662-2.246,2.458-6.823,6.121-6.823.043,0,1.051.006,1.051.63a2.733,2.733,0,0,1-.487.931,5.4,5.4,0,0,0-1.129,3c0,2.684,2.234,4.706,5.2,4.706a4.872,4.872,0,0,0,5.127-5.056c0-4.44-4.042-6.462-7.8-6.462m-16.846-9.974a33.471,33.471,0,0,1,0,8.293c-.4,2.9-.71,5.19-5.692,5.19-4.738,0-5.46-2.638-5.76-5.113l0-.017a30.043,30.043,0,0,1,0-8.293c.349-3.074.968-5.251,5.76-5.251,4.552,0,5.291,2.458,5.692,5.19M89.606,38.086c.455-4.8,1.206-8.189,6.74-8.189,5.7,0,6.637,4.554,7.628,9.378.126.613.252,1.226.384,1.807.117.6.232,1.306.355,2.071.175,1.063.369,2.243.61,3.449-1.309,5.958-3.38,11.449-9.539,11.449-4.769,0-5.786-3.635-6.179-7.562a61.463,61.463,0,0,1,0-12.4" transform="translate(147.424 14.366)" fill="#fff8ef"/>
    </g>
  </g>
</svg>
